<svg width="184" height="94" viewBox="0 0 184 94" fill="none" xmlns="http://www.w3.org/2000/svg">
<g filter="url(#filter0_i_397_262)">
<path fill-rule="evenodd" clip-rule="evenodd" d="M0.0634766 22.8801H24.5115L19.8007 45.0001H44.7607L49.4715 22.8801H73.7915L78.3995 1.12005H4.67148L0.0634766 22.8801ZM42.8441 54.0001H17.9995V53.4581L9.79148 92.0001H34.7515L42.8441 54.0001ZM87.2661 54.0001H137.128C137.366 55.3807 137.485 56.8687 137.485 58.4641C137.485 64.9494 136.291 70.4107 133.901 74.8481C131.512 79.2854 128.355 82.8694 124.429 85.6001C120.504 88.2454 116.195 90.1654 111.501 91.3601C106.808 92.5547 102.157 93.1521 97.5495 93.1521C91.3201 93.1521 84.9628 92.1707 78.4775 90.2081C71.9921 88.2454 66.4881 85.6854 61.9655 82.5281L77.3182 60.6504C77.3426 60.7274 77.9423 61.2359 79.1175 62.1761C80.4828 63.2001 82.3601 64.3521 84.7495 65.632C87.2241 66.912 89.9975 68.064 93.0695 69.0881C96.1415 70.1121 99.3415 70.6241 102.669 70.6241C104.632 70.6241 106.083 70.4107 107.021 69.9841C107.96 69.4721 108.557 68.8747 108.813 68.1921C109.155 67.424 109.325 66.6561 109.325 65.8881C109.325 64.3521 108.515 63.1147 106.893 62.1761C105.272 61.1521 103.181 60.2561 100.621 59.4881C98.1468 58.6347 95.5015 57.6534 92.6855 56.5441C90.7001 55.7318 88.8936 54.8838 87.2661 54.0001ZM77.3182 60.6504L77.3255 60.6401C77.3185 60.6401 77.3161 60.6435 77.3182 60.6504ZM132.61 45.0001H77.6979C76.511 42.5309 75.9175 39.6802 75.9175 36.4481C75.9175 30.7307 77.0268 25.6534 79.2455 21.216C81.5495 16.6934 84.6215 12.8961 88.4615 9.82405C92.3015 6.75205 96.5681 4.40538 101.261 2.78405C105.955 1.16272 110.733 0.352051 115.597 0.352051C119.864 0.352051 123.875 0.906718 127.629 2.01605C131.384 3.04005 134.84 4.32005 137.997 5.85605C141.155 7.39205 143.885 8.84272 146.189 10.208L131.113 30.7784C131.061 30.6572 130.539 30.2431 129.549 29.536C128.355 28.6827 126.733 27.744 124.685 26.72C122.637 25.6107 120.333 24.6294 117.773 23.776C115.213 22.9227 112.653 22.496 110.093 22.496C108.899 22.496 107.747 22.7094 106.637 23.136C105.613 23.4774 104.803 24.032 104.205 24.8C103.608 25.568 103.309 26.592 103.309 27.872C103.309 29.152 103.864 30.2187 104.973 31.0721C106.168 31.9254 107.789 32.736 109.837 33.5041C111.885 34.1867 114.232 35.0401 116.877 36.0641C120.973 37.6001 124.557 39.3067 127.629 41.1841C129.561 42.2804 131.221 43.5524 132.61 45.0001ZM147.577 54.0001L139.495 92.0001H164.455L172.537 54.0001H147.577ZM174.451 45.0001H149.491L158.823 1.12005H183.783L174.451 45.0001ZM131.113 30.7784L131.085 30.8161C131.115 30.8161 131.124 30.8035 131.113 30.7784Z" fill="white"/>
</g>
<defs>
<filter id="filter0_i_397_262" x="0.0634766" y="0.352051" width="183.72" height="96.8" filterUnits="userSpaceOnUse" color-interpolation-filters="sRGB">
<feFlood flood-opacity="0" result="BackgroundImageFix"/>
<feBlend mode="normal" in="SourceGraphic" in2="BackgroundImageFix" result="shape"/>
<feColorMatrix in="SourceAlpha" type="matrix" values="0 0 0 0 0 0 0 0 0 0 0 0 0 0 0 0 0 0 127 0" result="hardAlpha"/>
<feOffset dy="4"/>
<feGaussianBlur stdDeviation="2"/>
<feComposite in2="hardAlpha" operator="arithmetic" k2="-1" k3="1"/>
<feColorMatrix type="matrix" values="0 0 0 0 0 0 0 0 0 0 0 0 0 0 0 0 0 0 0.25 0"/>
<feBlend mode="normal" in2="shape" result="effect1_innerShadow_397_262"/>
</filter>
</defs>
</svg>
